<svg width="22" height="23" viewBox="0 0 22 23" fill="none" xmlns="http://www.w3.org/2000/svg">
<path d="M7.1156 1.2132C7.1156 1.2144 7.11511 1.21553 7.11426 1.21638C7.11342 1.21722 7.11228 1.21769 7.11109 1.21769C4.16109 2.30319 2.51661 4.23171 1.06611 6.76771H1.07056C-0.0283355 9.07211 -0.290969 11.6871 0.327702 14.164C0.946372 16.641 2.40779 18.8253 4.46119 20.3424C6.51458 21.8594 9.03194 22.6145 11.5813 22.4782C14.1307 22.3418 16.5531 21.3224 18.4329 19.5949C20.3128 17.8675 21.5328 15.5397 21.8837 13.0109C22.2346 10.4821 21.6944 7.91002 20.356 5.736C19.0175 3.56198 16.9641 1.92158 14.5482 1.09623C12.1323 0.270879 9.50447 0.312039 7.1156 1.21268V1.2132ZM16.3706 9.74421C16.4856 9.74408 16.5994 9.76662 16.7056 9.81059C16.8119 9.85455 16.9084 9.91907 16.9896 10.0004C17.0709 10.0817 17.1352 10.1783 17.1791 10.2846C17.2229 10.3909 17.2453 10.5047 17.2451 10.6197C17.2451 13.7782 17.7006 13.2787 12.7591 13.2787C12.7546 18.2917 13.2156 17.7667 10.0991 17.7722C9.98411 17.7725 9.87023 17.75 9.76398 17.7061C9.65773 17.6622 9.56125 17.5978 9.47998 17.5165C9.39872 17.4352 9.3343 17.3386 9.29047 17.2323C9.24664 17.126 9.22428 17.0122 9.22461 16.8972V13.2822L5.60907 13.2787C5.49448 13.2792 5.38094 13.2571 5.27497 13.2134C5.16899 13.1698 5.07267 13.1057 4.99164 13.0246C4.91061 12.9436 4.84647 12.8473 4.80286 12.7413C4.75925 12.6354 4.73708 12.5218 4.73761 12.4072V10.6162C4.73708 10.5016 4.75926 10.388 4.80286 10.282C4.84646 10.176 4.91062 10.0797 4.99164 9.9986C5.07267 9.91753 5.16893 9.8533 5.27491 9.80964C5.38088 9.76597 5.49446 9.74375 5.60907 9.74421L9.22461 9.74119C9.22461 4.73369 8.76909 5.24819 11.8846 5.25419C11.9992 5.25366 12.1128 5.27588 12.2188 5.31953C12.3247 5.36317 12.421 5.4274 12.502 5.50849C12.583 5.58958 12.6472 5.68591 12.6907 5.79194C12.7342 5.89797 12.7563 6.01158 12.7556 6.1262L12.7591 9.74421H16.3706Z" fill="white"/>
</svg>
