<svg width="21" height="26" viewBox="0 0 21 26" fill="none" xmlns="http://www.w3.org/2000/svg">
<path fill-rule="evenodd" clip-rule="evenodd" d="M19.355 5.66832C17.9403 4.12988 16.8665 2.92328 15.4608 1.37528C15.2903 1.18225 15.0927 1.01492 14.8742 0.878558V6.12165C14.8736 6.29859 14.9431 6.46861 15.0675 6.59447C15.1918 6.72033 15.361 6.79184 15.5379 6.79332H20.0475C19.8948 6.37552 19.6592 5.99287 19.355 5.66832ZM15.206 8.58931C14.6442 8.58471 14.1071 8.35791 13.712 7.95842C13.317 7.55894 13.0962 7.01938 13.0978 6.45755V0.503375C9.42094 0.498875 5.74407 0.498875 2.0672 0.503375C0.796511 0.508437 0.00225 1.4288 0.00225 2.86598C-0.0028125 6.32761 0.00225 21.4476 0.00225 22.8055C0.00225 24.358 0.806045 25.249 2.22073 25.249H18.0354C19.4501 25.249 20.2444 24.3726 20.2444 22.8055C20.2494 17.212 20.2444 14.1599 20.2494 8.59055L15.206 8.58931ZM10.2341 20.9688C10.2348 21.0264 10.2241 21.0836 10.2026 21.1371C10.1812 21.1905 10.1494 21.2393 10.1091 21.2804C10.0688 21.3216 10.0209 21.3544 9.96788 21.377C9.9149 21.3996 9.858 21.4116 9.80041 21.4121H4.1934C4.07672 21.411 3.96528 21.3636 3.88331 21.2806C3.80133 21.1976 3.75549 21.0855 3.7558 20.9688V20.0969C3.75564 19.9804 3.80155 19.8685 3.88351 19.7856C3.96547 19.7027 4.07682 19.6555 4.1934 19.6543H9.80041C9.85795 19.6549 9.9148 19.6668 9.96774 19.6894C10.0207 19.7119 10.0687 19.7448 10.109 19.7859C10.1493 19.827 10.181 19.8756 10.2025 19.929C10.224 19.9824 10.2347 20.0394 10.2341 20.0969V20.9688ZM16.4914 16.7581C16.492 16.8157 16.4813 16.8727 16.4599 16.9262C16.4385 16.9796 16.4067 17.0284 16.3664 17.0695C16.3261 17.1107 16.2781 17.1435 16.2251 17.1661C16.1722 17.1887 16.1153 17.2006 16.0577 17.2012H4.1934C4.07672 17.2 3.96528 17.1528 3.88331 17.0698C3.80133 16.9868 3.75549 16.8747 3.7558 16.7581V15.8867C3.75549 15.77 3.80133 15.658 3.88331 15.575C3.96528 15.4919 4.07672 15.4446 4.1934 15.4434H16.0577C16.1153 15.444 16.1722 15.456 16.2251 15.4786C16.2781 15.5012 16.3261 15.5339 16.3664 15.5751C16.4067 15.6163 16.4385 15.665 16.4599 15.7185C16.4813 15.7719 16.492 15.8291 16.4914 15.8867V16.7581ZM16.4914 12.5471C16.4919 12.6045 16.4812 12.6613 16.4596 12.7144C16.4381 12.7675 16.4062 12.8159 16.3659 12.8567C16.3256 12.8974 16.2776 12.9298 16.2247 12.9518C16.1717 12.9739 16.115 12.9854 16.0577 12.9854H4.1934C4.13588 12.9854 4.07892 12.974 4.02579 12.952C3.97266 12.93 3.92443 12.8976 3.88379 12.857C3.84314 12.8163 3.81092 12.768 3.78896 12.7148C3.767 12.6617 3.75572 12.6047 3.7558 12.5471V11.6725C3.75639 11.5565 3.80263 11.4453 3.88454 11.3632C3.96646 11.2811 4.07741 11.2346 4.1934 11.2337H16.0577C16.1733 11.2346 16.2839 11.2813 16.3652 11.3635C16.4464 11.4457 16.4918 11.5569 16.4914 11.6725V12.5471Z" fill="white"/>
</svg>
