<svg width="17" height="17" viewBox="0 0 17 17" fill="none" xmlns="http://www.w3.org/2000/svg">
<path d="M5.82892 0.784317C5.82892 0.787692 5.82517 0.787682 5.82517 0.787682C3.61267 1.60181 2.37968 3.0482 1.29143 4.95019H1.29482C0.470536 6.67854 0.273451 8.63988 0.737399 10.4977C1.20135 12.3555 2.29739 13.9939 3.83747 15.1318C5.37754 16.2697 7.26562 16.8361 9.17774 16.7339C11.0899 16.6317 12.9068 15.8672 14.3168 14.5716C15.7268 13.276 16.6419 11.5301 16.9052 9.63344C17.1684 7.73677 16.7633 5.80762 15.7595 4.17699C14.7557 2.54636 13.2157 1.31593 11.4037 0.696815C9.59166 0.0777001 7.62068 0.108486 5.82892 0.783928V0.784317ZM12.5242 10.4271C12.5852 10.488 12.6336 10.5603 12.6667 10.6399C12.6997 10.7196 12.7167 10.8049 12.7167 10.8911C12.7167 10.9773 12.6997 11.0627 12.6667 11.1423C12.6336 11.222 12.5852 11.2943 12.5242 11.3552C10.8505 13.0303 11.3564 13.0052 8.73668 10.3839C6.07793 13.0401 6.60102 13.0059 4.94502 11.3552C4.88399 11.2943 4.83561 11.222 4.80257 11.1423C4.76953 11.0627 4.75249 10.9773 4.75249 10.8911C4.75249 10.8049 4.76953 10.7196 4.80257 10.6399C4.83561 10.5603 4.88399 10.488 4.94502 10.4271L6.86054 8.5097L4.94502 6.58931C4.884 6.52876 4.83557 6.45672 4.80252 6.37736C4.76947 6.29801 4.75249 6.21291 4.75249 6.12695C4.75249 6.04098 4.76947 5.95586 4.80252 5.8765C4.83557 5.79715 4.884 5.72511 4.94502 5.66456L5.89379 4.71506C5.95419 4.65399 6.02614 4.6055 6.10541 4.5724C6.18468 4.53931 6.26972 4.52228 6.35562 4.52228C6.44152 4.52228 6.52657 4.53931 6.60584 4.5724C6.68511 4.6055 6.75701 4.65399 6.81742 4.71506L8.73668 6.63243C11.3902 3.97668 10.8742 4.00745 12.5242 5.66495C12.5852 5.7255 12.6336 5.79751 12.6667 5.87687C12.6997 5.95623 12.7168 6.04135 12.7168 6.12731C12.7168 6.21328 12.6997 6.2984 12.6667 6.37775C12.6336 6.45711 12.5852 6.52913 12.5242 6.58968L10.6083 8.51006L12.5242 10.4271Z" fill="#292422"/>
</svg>
