<svg width="34" height="35" viewBox="0 0 34 35" fill="none" xmlns="http://www.w3.org/2000/svg">
<path d="M29.3552 16.7357L24.421 13.2123C24.2737 13.1071 24.0968 13.0418 23.9106 13.0237C23.7243 13.0056 23.5363 13.0356 23.3679 13.1101C23.1995 13.1847 23.0576 13.301 22.9585 13.4455C22.8594 13.59 22.8071 13.7569 22.8075 13.9272V15.6158H19.3841C19.1188 15.6158 18.8644 15.7114 18.6767 15.882C18.489 16.0525 18.3835 16.2838 18.3833 16.525V18.4292C18.3829 18.5488 18.4085 18.6673 18.4587 18.7778C18.5089 18.8883 18.5826 18.9887 18.6756 19.0732C18.7687 19.1577 18.8792 19.2247 19.0008 19.2702C19.1223 19.3158 19.2526 19.339 19.3841 19.3386H22.8075V21.027C22.8071 21.1973 22.8594 21.3642 22.9585 21.5087C23.0576 21.6532 23.1995 21.7695 23.3679 21.8441C23.5363 21.9187 23.7243 21.9486 23.9106 21.9306C24.0968 21.9125 24.2737 21.8471 24.421 21.7419L29.3552 18.2187C29.4783 18.1302 29.5778 18.0175 29.6461 17.889C29.7145 17.7606 29.7501 17.6198 29.7501 17.4771C29.7501 17.3344 29.7145 17.1936 29.6461 17.0652C29.5778 16.9368 29.4783 16.8242 29.3552 16.7357Z" fill="#FD4F13"/>
<path d="M4.25002 7.86391V27.0892C4.24752 27.7607 4.52818 28.4075 5.03425 28.8966C5.54033 29.3857 6.23337 29.6799 6.97072 29.7186L16.2703 31.6505C16.3266 31.6616 16.384 31.6673 16.4417 31.6673C16.6369 31.6664 16.8249 31.5999 16.9694 31.4805C17.0679 31.3984 17.1464 31.2983 17.1997 31.1869C17.253 31.0754 17.28 30.955 17.2789 30.8334V29.7231H20.6279C21.3927 29.7185 22.1244 29.4383 22.6623 28.9439C23.2002 28.4496 23.5005 27.7814 23.4973 27.0861V24.1611C23.5013 24.0037 23.4707 23.8472 23.4073 23.7008C23.3438 23.5543 23.2488 23.4208 23.1278 23.3082C23.0068 23.1956 22.8623 23.1061 22.7027 23.045C22.5431 22.9839 22.3717 22.9524 22.1986 22.9524C22.0254 22.9524 21.854 22.9839 21.6944 23.045C21.5348 23.1061 21.3903 23.1956 21.2694 23.3082C21.1484 23.4208 21.0533 23.5543 20.9899 23.7008C20.9264 23.8472 20.8958 24.0037 20.8999 24.1611V27.0861C20.9001 27.1517 20.8716 27.2148 20.8208 27.2614C20.7699 27.308 20.7008 27.3343 20.6286 27.3346H17.2796V7.61094H20.6286C20.6644 7.61111 20.6999 7.61762 20.733 7.63028C20.7661 7.64293 20.796 7.66146 20.8212 7.68467C20.8464 7.70788 20.8663 7.73542 20.8798 7.76564C20.8933 7.79586 20.9002 7.82815 20.8999 7.86076V10.7844C20.8958 10.9418 20.9264 11.0983 20.9899 11.2448C21.0533 11.3913 21.1484 11.5248 21.2694 11.6374C21.3903 11.75 21.5348 11.8395 21.6944 11.9006C21.854 11.9616 22.0254 11.993 22.1986 11.993C22.3717 11.993 22.5431 11.9616 22.7027 11.9006C22.8623 11.8395 23.0068 11.75 23.1278 11.6374C23.2488 11.5248 23.3438 11.3913 23.4073 11.2448C23.4707 11.0983 23.5013 10.9418 23.4973 10.7844V7.86076C23.5007 7.16532 23.2004 6.49713 22.6625 6.00272C22.1245 5.50832 21.3928 5.22812 20.6279 5.22369H17.2789V4.16748C17.2799 4.04665 17.2531 3.92698 17.2003 3.81609C17.1475 3.70521 17.0698 3.60555 16.9722 3.52351C16.8805 3.446 16.7695 3.38979 16.6488 3.35952C16.5281 3.32926 16.4012 3.32581 16.2788 3.34962L6.75612 5.24806C6.56731 5.27006 6.38142 5.30962 6.20144 5.36598C6.17331 5.3739 6.14569 5.38312 6.11861 5.39365C5.56838 5.58458 5.09501 5.92314 4.76128 6.36433C4.42756 6.80552 4.24922 7.32846 4.25002 7.86391ZM13.971 15.0321C14.7771 15.0321 15.4302 15.998 15.4302 17.1881C15.4302 18.3781 14.7771 19.3448 13.971 19.3448C13.1649 19.3448 12.5119 18.3788 12.5119 17.1881C12.5119 15.9973 13.165 15.0321 13.9703 15.0321H13.971Z" fill="#FD4F13"/>
</svg>
