<!DOCTYPE svg PUBLIC "-//W3C//DTD SVG 1.1//EN" "http://www.w3.org/Graphics/SVG/1.1/DTD/svg11.dtd">
<!-- Uploaded to: SVG Repo, www.svgrepo.com, Transformed by: SVG Repo Mixer Tools -->
<svg fill="#434343" height="800px" width="800px" version="1.1" id="Layer_1" xmlns="http://www.w3.org/2000/svg" xmlns:xlink="http://www.w3.org/1999/xlink" viewBox="0 0 512.01 512.01" xml:space="preserve" stroke="#434343">
<g id="SVGRepo_bgCarrier" stroke-width="0"/>
<g id="SVGRepo_tracerCarrier" stroke-linecap="round" stroke-linejoin="round"/>
<g id="SVGRepo_iconCarrier"> <g> <g> <g> <path d="M439.471,0H72.538c-19.413,0-35.2,15.787-35.2,35.2v420.267c0,9.493,3.84,18.56,10.667,25.173v20.373 c0,5.333,3.84,10.133,9.067,10.88c6.613,0.96,12.267-4.16,12.267-10.56v-10.987c1.067,0.107,2.133,0.32,3.2,0.32h366.933 c1.067,0,2.133-0.213,3.2-0.32v10.667c0,5.333,3.84,10.133,9.067,10.88c6.613,0.96,12.267-4.16,12.267-10.56V480.64 c6.827-6.613,10.667-15.68,10.667-25.173V35.2C474.671,15.787,458.885,0,439.471,0z M261.338,214.618 c0.101,0.711,0.275,1.423,0.533,2.129c0,0.107,0.107,0.32,0.213,0.427l30.613,81.6h-31.36V214.618z M58.671,35.2 c0-7.573,6.187-13.867,13.867-13.867h167.467v277.333h-85.44c0-1.28-0.213-2.56-0.64-3.733l-32-85.333 c-1.92-5.547-8-8.533-13.547-6.507c-5.547,1.92-8.533,8-6.507,13.547c0,0.107,0.107,0.32,0.213,0.427l30.613,81.6h-27.093 c2.133-2.987,2.56-6.72,1.173-10.027l-36.693-85.867c-1.92-4.373-6.613-6.933-11.413-6.187V35.2z M58.671,230.4l28.48,66.56 c0.32,0.64,0.64,1.173,1.067,1.707H58.671V230.4z M453.338,455.467c0,7.68-6.187,13.867-13.867,13.867H72.538 c-7.68,0-13.867-6.187-13.867-13.867V320h394.667V455.467z M453.338,298.667h-96.107c0-1.28-0.213-2.56-0.64-3.733l-32-85.333 c-2.027-5.653-8.32-8.64-13.867-6.4c-5.12,2.027-8,7.787-6.4,13.12c0.107,0.32,0.213,0.533,0.32,0.853l30.613,81.6h-20.693 c0-1.28-0.213-2.56-0.64-3.733l-32-85.333c-1.92-5.547-8-8.533-13.547-6.507c-3.897,1.424-6.521,4.798-7.04,8.602V21.333h178.133 c7.68,0,13.867,6.187,13.867,13.867V298.667z"/> <path d="M421.338,416c5.867,0,10.667-4.8,10.667-10.667v-42.667c0-5.867-4.8-10.667-10.667-10.667 c-5.867,0-10.667,4.8-10.667,10.667v42.667C410.671,411.2,415.471,416,421.338,416z"/> </g> </g> </g> </g>
</svg>