<svg width="97" height="60" viewBox="0 0 97 60" fill="none" xmlns="http://www.w3.org/2000/svg">
<path id="Union" fill-rule="evenodd" clip-rule="evenodd" d="M48.7828 0.464984L48.1544 0.0944214L47.5275 0.467348L33.2405 8.96566L32.6385 9.32374V10.0242L32.6385 18.7688V20.9667L34.5131 19.8193L48.1554 11.4693L61.9219 19.9409L63.799 21.0961V18.892V10.0242V9.32067L63.193 8.9633L48.7828 0.464984ZM35.1018 10.7246L48.1598 2.95733L61.3357 10.7277V16.6879L48.8026 8.97525L48.1589 8.57909L47.5141 8.9737L35.1018 16.5709L35.1018 10.7246ZM48.1544 28.1758L48.7828 28.5464L63.193 37.0447L63.799 37.402V38.1056V46.9734V49.1775L61.9219 48.0223L48.1554 39.5507L34.5131 47.9007L32.6385 49.0481V46.8502L32.6385 38.1056V37.4051L33.2405 37.047L47.5275 28.5487L48.1544 28.1758ZM48.1598 31.0387L35.1018 38.806L35.1018 44.6523L47.5141 37.0551L48.1589 36.6605L48.8026 37.0566L61.3357 44.7693V38.8091L48.1598 31.0387ZM33.3774 50.5451L48.1571 42.17L63.3063 51.1609L48.1571 59.9056L33.3774 50.5451ZM16.1443 28.7927L15.5159 28.4221L14.889 28.7951L0.602005 37.2934L1.00136e-05 37.6514L9.41753e-06 38.3519L1.90735e-06 47.0965L0 49.2944L1.87461 48.147L15.5169 39.797L29.2834 48.2686L31.1605 49.4238V47.2197V38.3519V37.6484L30.5545 37.291L16.1443 28.7927ZM2.46329 39.0523L15.5213 31.285L28.6972 39.0554V45.0156L16.1641 37.303L15.5204 36.9068L14.8757 37.3014L2.46328 44.8987L2.46329 39.0523ZM81.2855 28.9148L81.9138 29.2853L96.3241 37.7837L96.9301 38.141V38.8445V47.7124V49.9164L95.0529 48.7613L81.2864 40.2896L67.6442 48.6397L65.7695 49.7871L65.7695 47.5892L65.7696 38.8445V38.1441L66.3715 37.786L80.6585 29.2877L81.2855 28.9148ZM81.2909 31.7777L68.2328 39.545V45.3913L80.6452 37.7941L81.2899 37.3995L81.9337 37.7956L94.4668 45.5083V39.5481L81.2909 31.7777ZM65.1565 35.8421L64.5281 35.4715L50.1179 26.9732L49.5119 26.6159V25.9123V17.0445V14.8404L51.389 15.9956L65.1555 24.4672L78.7978 16.1172L80.6724 14.9698V17.1677L80.6724 25.9123L80.6724 26.6128L80.0704 26.9709L65.7834 35.4692L65.1565 35.8421ZM65.1511 32.9792L78.2091 25.2119V19.3656L65.7967 26.9628L65.152 27.3574L64.5083 26.9613L51.9752 19.2486V25.2088L65.1511 32.9792ZM31.0275 35.4715L31.6559 35.8421L32.2828 35.4692L46.5698 26.9709L47.1718 26.6128V25.9123L47.1718 17.1677L47.1718 14.9698L45.2972 16.1172L31.6549 24.4672L17.8884 15.9956L16.0113 14.8404V17.0445L16.0113 25.9123V26.6159L16.6173 26.9732L31.0275 35.4715ZM44.7085 25.2119L31.6505 32.9792L18.4746 25.2088L18.4746 19.2486L31.0077 26.9613L31.6514 27.3574L32.2961 26.9628L44.7085 19.3656L44.7085 25.2119Z" fill="#FD4F13"/>
</svg>
