<svg width="73" height="46" viewBox="0 0 73 46" fill="none" xmlns="http://www.w3.org/2000/svg">
<path id="Union" fill-rule="evenodd" clip-rule="evenodd" d="M36.5887 0.777928L36.1174 0.5L35.6472 0.779701L24.932 7.15349L24.4805 7.42206L24.4805 7.94739L24.4805 14.5059L24.4805 16.1544L25.8864 15.2938L36.1181 9.03122L46.443 15.385L47.8509 16.2514V14.5983V7.94739V7.41975L47.3964 7.15172L36.5887 0.777928ZM26.3279 8.47272L36.1215 2.6472L46.0034 8.47503V12.9452L36.6036 7.16069L36.1208 6.86356L35.6372 7.15952L26.3279 12.8575L26.3279 8.47272ZM36.1174 21.561L36.5887 21.8389L47.3964 28.2127L47.8509 28.4807V29.0084V35.6593V37.3124L46.443 36.446L36.1181 30.0922L25.8864 36.3548L24.4805 37.2153L24.4805 35.5669L24.4805 29.0084L24.4805 28.483L24.932 28.2145L35.6472 21.8407L36.1174 21.561ZM36.1215 23.7082L26.3279 29.5337L26.3279 33.9185L35.6372 28.2205L36.1208 27.9245L36.6036 28.2217L46.0034 34.0062V29.536L36.1215 23.7082ZM25.0351 38.338L36.1198 32.0565L47.4817 38.7998L36.1198 45.3584L25.0351 38.338ZM12.1082 22.0235L11.637 21.7456L11.1667 22.0253L0.451503 28.399L7.51019e-06 28.6676L7.09295e-06 29.1929L0 35.7515V37.3999L1.40597 36.5394L11.6377 30.2768L21.9625 36.6306L23.3704 37.4969V35.8439V29.1929V28.6653L22.9159 28.3973L12.1082 22.0235ZM1.84747 29.7183L11.641 23.8928L21.5229 29.7206V34.1908L12.1231 28.4062L11.6403 28.1091L11.1568 28.4051L1.84747 34.1031L1.84747 29.7183ZM60.9641 22.1154L61.4354 22.3934L72.2431 28.7671L72.6975 29.0352V29.5628V36.2137V37.8668L71.2897 37.0004L60.9648 30.6466L50.7331 36.9092L49.3271 37.7698L49.3272 36.1214L49.3272 29.5628V29.0375L49.7787 28.7689L60.4939 22.3951L60.9641 22.1154ZM60.9682 24.2626L51.1746 30.0882L51.1746 34.4729L60.4839 28.775L60.9674 28.479L61.4503 28.7761L70.8501 34.5606V30.0905L60.9682 24.2626ZM48.8687 27.311L48.3974 27.0331L37.5898 20.6593L37.1353 20.3912V19.8636V13.2127V11.5596L38.5431 12.426L48.868 18.7798L59.0997 12.5172L60.5057 11.6566V13.3051L60.5057 19.8636V20.3889L60.0542 20.6575L49.3389 27.0313L48.8687 27.311ZM48.8647 25.1638L58.6582 19.3383L58.6582 14.9535L49.3489 20.6515L48.8654 20.9474L48.3826 20.6503L38.9827 14.8658V19.336L48.8647 25.1638ZM23.2724 27.0331L23.7437 27.311L24.2139 27.0313L34.9292 20.6575L35.3807 20.3889V19.8636L35.3807 13.3051V11.6566L33.9747 12.5172L23.743 18.7798L13.4181 12.426L12.0103 11.5596V13.2127V19.8636V20.3912L12.4648 20.6593L23.2724 27.0331ZM33.5332 19.3383L23.7397 25.1638L13.8577 19.336V14.8658L23.2576 20.6503L23.7404 20.9474L24.2239 20.6515L33.5332 14.9535L33.5332 19.3383Z" fill="#FD4F13"/>
</svg>
